HIERARCHY
ROOT Hips
{
	OFFSET 0.00000 0.00000 0.00000
	CHANNELS 6 Xposition Yposition Zposition Zrotation Yrotation Xrotation 
	JOINT LHipJoint
	{
		OFFSET 0 0 0
		CHANNELS 3 Zrotation Yrotation Xrotation
		JOINT LeftHip
		{
			OFFSET 1.60223 -1.58443 0.78595
			CHANNELS 3 Zrotation Yrotation Xrotation
			JOINT LeftKnee
			{
				OFFSET 2.21690 -6.09089 0.00000
				CHANNELS 3 Zrotation Yrotation Xrotation
				JOINT LeftAnkle
				{
					OFFSET 2.34805 -6.45122 0.00000
					CHANNELS 3 Zrotation Yrotation Xrotation
					JOINT LeftToe
					{
						OFFSET 0.35452 -0.97402 1.38549
						CHANNELS 3 Zrotation Yrotation Xrotation
						End Site
						{
							OFFSET 0.00000 -0.00000 0.82816
						}
					}
				}
			}
		}
	}
	JOINT RHipJoint
	{
		OFFSET 0 0 0
		CHANNELS 3 Zrotation Yrotation Xrotation
		JOINT RightHip
		{
			OFFSET -1.56524 -1.58443 0.78595
			CHANNELS 3 Zrotation Yrotation Xrotation
			JOINT RightKnee
			{
				OFFSET -2.15558 -5.92241 0.00000
				CHANNELS 3 Zrotation Yrotation Xrotation
				JOINT RightAnkle
				{
					OFFSET -2.35077 -6.45870 0.00000
					CHANNELS 3 Zrotation Yrotation Xrotation
					JOINT RightToe
					{
						OFFSET -0.26910 -0.73935 1.33295
						CHANNELS 3 Zrotation Yrotation Xrotation
						End Site
						{
							OFFSET -0.00000 -0.00000 0.75962
						}
					}
				}
			}
		}
	}
	JOINT lowerback
	{
		OFFSET 0 0 0
		CHANNELS 3 Zrotation Yrotation Xrotation
		JOINT Chest
		{
			OFFSET -0.05489 1.97104 -0.02993
			CHANNELS 3 Zrotation Yrotation Xrotation
			JOINT Chest2
			{
				OFFSET -0.00702 1.94230 0.13626
				CHANNELS 3 Zrotation Yrotation Xrotation
				JOINT lowerneck
				{
					OFFSET 0 0 0
					CHANNELS 3 Zrotation Yrotation Xrotation
					JOINT Neck
					{
						OFFSET -0.07858 1.62869 -0.02510
						CHANNELS 3 Zrotation Yrotation Xrotation
						JOINT Head
						{
							OFFSET 0.13978 1.59213 -0.29859
							CHANNELS 3 Zrotation Yrotation Xrotation
							End Site
							{
								OFFSET 0.05353 1.64420 -0.10000
							}
						}
					}
				}
				JOINT LeftCollar
				{
					OFFSET 0 0 0
					CHANNELS 3 Zrotation Yrotation Xrotation
					JOINT LeftShoulder
					{
						OFFSET 3.48263 1.15278 0.52941
CHANNELS 3 Zrotation Xrotation Yrotation
						JOINT LeftElbow
						{
OFFSET 0 -4.592070 -0.000000
CHANNELS 3 Zrotation Xrotation Yrotation
							JOINT LeftWrist
							{
OFFSET 0 -2.981090 -0.000000
CHANNELS 3 Zrotation Xrotation Yrotation
								JOINT lhand
								{
									OFFSET 0 0 0
CHANNELS 3 Zrotation Xrotation Yrotation
									JOINT LFingers
									{
OFFSET 0 -0.480200 -0.000000
CHANNELS 3 Zrotation Xrotation Yrotation
										End Site
										{
OFFSET 0 -0.387150 -0.000000
										}
									}
								}
								JOINT LThumb
								{
OFFSET 0 0.000000 0.000000
CHANNELS 3 Zrotation Xrotation Yrotation
									End Site
									{
OFFSET 0 -0.393060 0.393060
									}
								}
							}
						}
					}
				}
				JOINT RightCollar
				{
					OFFSET 0 0 0
					CHANNELS 3 Zrotation Yrotation Xrotation
					JOINT RightShoulder
					{
						OFFSET -3.52496 1.12722 0.24548
CHANNELS 3 Zrotation Xrotation Yrotation
						JOINT RightElbow
						{
OFFSET 0 -4.765080 -0.000000
CHANNELS 3 Zrotation Xrotation Yrotation
							JOINT RightWrist
							{
OFFSET 0 -2.789020 -0.000000
CHANNELS 3 Zrotation Xrotation Yrotation
								JOINT rhand
								{
									OFFSET 0 0 0
CHANNELS 3 Zrotation Xrotation Yrotation
									JOINT RFingers
									{
OFFSET 0 -0.721300 -0.000000
CHANNELS 3 Zrotation Xrotation Yrotation
										End Site
										{
OFFSET 0 -0.581530 -0.000000
										}
									}
								}
								JOINT RThumb
								{
OFFSET 0 0.000000 0.000000
CHANNELS 3 Zrotation Xrotation Yrotation
									End Site
									{
OFFSET 0 -0.590410 0.590410
									}
								}
							}
						}
					}
				}
			}
		}
	}
}
MOTION
Frames: 6
Frame Time: 0.008333333333333333
5.213129 15.867351 5.737908 11.953143 -171.180212 -2519.044023 0.000000 0.000000 0.000000 11.369301 -34.401704 -20.065593 5.818432 14.247999 44.244550 0.363274 -16.630182 -15.072104 3.862897 -11.973211 -35.640654 0.000000 0.000000 0.000000 32.343654 -3.735352 -10.536974 -1.317227 -7.269033 20.515020 0.331119 19.276982 -10.517103 -0.100107 2.029736 -5.588179 5.640912 0.789042 7.354163 5.592116 1.651236 -7.389198 2.724487 0.294116 -12.194383 -5.057353 -1.960711 -2.206567 14.246173 -4.110190 7.395585 5.020530 -1.981883 2.929865 0.000000 0.000000 0.000000 21.108681 11.633748 -32.327443 129.749346 -53.092539 93.624602 11.161807 30.783751 -20.966909 0.000000 0.000000 0.000000 -7.125000 0.000000 0.000000 -17.374550 50.493008 2.415037 0.000000 0.000000 0.000000 -32.242349 -21.194509 1.296602 -114.575425 -57.589379 -81.110596 4.632473 3.612322 -49.503033 0.000000 0.000000 0.000000 7.125000 0.000000 0.000000 20.642758 -16.975197 27.256955
3.539936 15.846379 5.474359 7.649176 -190.752861 -2515.987078 0.000000 0.000000 0.000000 -0.299250 -25.214797 -12.793283 5.196489 13.598812 41.659014 0.739780 -19.193574 -19.195969 4.720731 -13.060927 -39.599150 0.000000 0.000000 0.000000 21.146944 10.735747 -12.344901 -2.428031 -9.705457 28.028370 0.325234 20.286225 -11.454808 -0.804007 5.708683 -15.945190 1.000952 1.718641 7.926134 5.210624 3.685814 -7.324932 4.407061 2.236973 -12.777686 -8.485676 -5.335358 -0.087021 15.909821 -7.498605 8.541431 6.050676 -3.151947 3.450569 0.000000 0.000000 0.000000 14.796061 13.993044 -21.019411 116.953479 -57.056995 83.110294 25.594384 36.722041 -13.988866 0.000000 0.000000 0.000000 -7.125000 0.000000 0.000000 -1.737339 45.411208 0.026436 0.000000 0.000000 0.000000 -27.254622 -10.402688 1.732319 -109.299150 -58.542271 -76.631495 -18.669802 -22.926493 -67.770068 0.000000 0.000000 0.000000 7.125000 0.000000 0.000000 16.766489 -36.981644 23.959961
1.887449 16.024160 5.421850 1.278711 -205.388427 -2516.286544 0.000000 0.000000 0.000000 -15.123146 -14.210250 -11.757538 3.881705 12.000576 35.735015 1.574840 -11.047178 -22.643051 2.677071 -10.148502 -29.463230 0.000000 0.000000 0.000000 11.658872 13.426226 -20.724673 -4.071909 -12.241694 36.612637 -0.739537 -5.617423 -19.479413 -1.955472 8.763112 -25.063367 -2.849562 1.549988 10.587917 2.962667 2.237493 -6.869389 4.377436 1.608371 -13.814814 -10.466658 -6.945680 0.827156 15.144227 -9.851290 8.207108 6.024314 -4.553326 3.560379 0.000000 0.000000 0.000000 5.960993 13.003008 -13.071728 89.847236 -59.947053 59.868331 43.952807 41.458274 -7.595304 0.000000 0.000000 0.000000 -7.125000 0.000000 0.000000 15.026681 40.019969 1.898777 0.000000 0.000000 0.000000 -13.537209 5.746287 9.245840 -95.975906 -59.861203 -65.172728 -88.230226 -91.365271 -81.418761 0.000000 0.000000 0.000000 7.125000 0.000000 0.000000 22.821132 -57.059434 31.910502
0.561313 15.677675 5.456440 -7.992331 -217.177908 -2523.967279 0.000000 0.000000 0.000000 -27.234341 -2.464844 -16.833400 4.623240 12.946546 39.168801 1.538765 -12.322428 -22.566009 1.303609 -7.233039 -20.407569 0.000000 0.000000 0.000000 8.503699 6.298350 -28.045114 -10.097107 -17.463367 59.811448 -1.044518 -5.242529 -21.873836 -0.694734 5.327737 -14.845725 -6.280876 0.008250 14.142467 -1.254740 -1.315822 -5.255607 2.478428 -0.096103 -13.770416 -9.209314 -5.133794 1.138827 13.394622 -7.368686 7.374099 5.403073 -3.446349 2.818936 0.000000 0.000000 0.000000 5.031369 4.679313 -7.784951 49.998750 -52.992697 26.173737 58.152513 56.122497 -7.130833 0.000000 0.000000 0.000000 -7.125000 0.000000 0.000000 27.893039 41.472450 2.661612 0.000000 0.000000 0.000000 0.563629 18.419544 18.883563 -82.801875 -59.803028 -53.770362 -47.761598 -40.912909 -84.923355 0.000000 0.000000 0.000000 7.125000 0.000000 0.000000 25.948230 -52.765015 37.113198
-0.512176 15.578677 5.272844 -18.616347 -238.754018 -2533.800551 0.000000 0.000000 0.000000 -34.110776 6.247234 -21.147844 4.474800 12.766276 38.500501 2.219143 -5.521620 -27.008267 0.602158 -4.904991 -13.650658 0.000000 0.000000 0.000000 10.906846 2.427907 -24.063250 -11.871476 -18.335563 65.580559 -0.930647 -3.340621 -19.731526 -1.172587 6.873119 -19.340069 -5.805455 -1.281121 12.090539 -4.689195 -3.050112 -5.065821 -1.220550 -1.122488 -12.372001 -5.224514 0.858540 -1.465273 11.842975 0.710626 8.637604 4.481587 0.712659 2.718309 0.000000 0.000000 0.000000 7.963202 4.034899 4.033040 41.639278 -49.010838 19.668099 63.508410 65.625884 -11.824859 0.000000 0.000000 0.000000 -7.125000 0.000000 0.000000 37.862421 50.763256 -6.190001 0.000000 0.000000 0.000000 -0.567483 20.133895 35.770989 -89.774265 -59.988253 -59.804627 -51.871219 -45.891932 -85.973931 0.000000 0.000000 0.000000 7.125000 0.000000 0.000000 27.068467 -53.404788 38.678508
-1.360180 15.885016 5.157774 -46.514486 -264.542825 -2559.773239 0.000000 0.000000 0.000000 -30.910119 11.979676 -29.615561 4.425461 12.704726 38.275053 2.562701 3.407183 -31.614275 0.774564 -5.617010 -15.677764 0.000000 0.000000 0.000000 16.797944 3.550763 -13.590130 -7.205765 -15.481787 49.611912 -0.630397 3.111401 -14.246973 -2.539312 9.908969 -28.682536 0.046403 -0.887249 8.590621 -3.453825 -1.432918 -6.174295 -3.525091 -0.814183 -11.611704 -0.981805 8.403142 -2.375669 6.464192 10.983300 7.299828 2.507637 5.680568 2.294166 0.000000 0.000000 0.000000 11.885730 7.970968 13.983389 37.846275 -46.738418 16.854359 60.655358 61.088922 -13.240701 0.000000 0.000000 0.000000 -7.125000 0.000000 0.000000 35.344888 51.878461 -6.731505 0.000000 0.000000 0.000000 -11.423449 14.687931 40.537050 -103.010165 -59.350643 -71.242582 -21.075892 -18.295178 -83.670875 0.000000 0.000000 0.000000 7.125000 0.000000 0.000000 25.961108 -50.070456 37.497624
